<svg width="83" height="13" viewBox="0 0 83 13" fill="none" xmlns="http://www.w3.org/2000/svg">
    <path d="M4.784 12.16C3.184 12.16 0.32 11.456 0.32 9.408C0.32 8.368 1.136 7.68 2.144 7.68C3.056 7.68 3.936 8.272 3.936 9.248C3.936 10.368 2.976 10.176 2.976 10.8C2.976 11.376 3.808 11.6 4.256 11.6C5.136 11.6 5.808 11.024 5.808 10.128C5.808 8 0.928 6.912 0.928 3.648C0.928 1.424 3.28 0.639999 5.136 0.639999C6.672 0.639999 8.88 1.2 8.88 3.12C8.88 4.16 8.112 4.864 7.072 4.864C6.16 4.864 5.296 4.272 5.296 3.296C5.296 2.176 6.24 2.368 6.24 1.792C6.24 1.376 5.728 1.184 5.376 1.184C4.624 1.184 4.24 1.792 4.24 2.48C4.24 5.648 9.184 5.728 9.184 8.96C9.184 11.344 6.8 12.16 4.784 12.16Z" fill="#494949"/>
    <path d="M13.0877 12.16C9.77575 12.16 7.74375 9.344 7.74375 6.224C7.74375 3.216 10.0157 0.639999 13.0877 0.639999C16.1278 0.639999 18.3358 3.296 18.3358 6.224C18.3358 9.28 16.3678 12.16 13.0877 12.16ZM13.0877 1.2C11.4718 1.2 11.1838 5.008 11.1838 6.064C11.1838 7.072 11.5037 11.6 13.0877 11.6C14.5597 11.6 14.8958 6.976 14.8958 6.032C14.8958 4.976 14.7197 1.2 13.0877 1.2Z" fill="#494949"/>
    <path d="M17.0425 0.799999H20.8025V7.552C20.8025 8.304 20.6585 11.6 21.9545 11.6C23.1545 11.6 23.0105 8.24 23.0105 7.552V0.799999H26.7705C26.1625 2.56 26.2905 5.776 26.2905 7.552C26.2905 10.608 25.0425 12.16 21.9225 12.16C18.7865 12.16 17.5225 10.624 17.5225 7.552C17.5225 5.776 17.6505 2.56 17.0425 0.799999Z" fill="#494949"/>
    <path d="M31.1276 12C30.7116 12 30.5676 11.84 30.4236 11.472C30.1516 10.784 29.9276 9.952 29.6716 9.232C28.9996 7.392 27.9116 4.72 26.7436 2.624C26.6956 2.928 26.6796 3.232 26.6796 3.536C26.6796 6.816 29.0476 9.584 29.0476 12H25.5756C25.9916 10.88 26.0556 9.504 26.0556 8.32V3.616C26.0556 2.656 25.9756 1.68 25.5756 0.799999H29.2716C29.6556 0.799999 29.8476 0.992 29.9916 1.328L33.5116 9.904C33.5276 9.712 33.5436 9.52 33.5436 9.328C33.5436 6.16 31.2716 3.568 31.2716 0.992V0.799999H34.7436C34.3436 1.92 34.2796 3.312 34.2636 4.48C34.2476 6.096 34.1836 7.728 34.1836 9.344C34.1836 10.256 34.2796 11.168 34.6636 12H31.1276Z" fill="#494949"/>
    <path d="M37.4324 1.36H37.4004L37.3844 11.44C39.1124 11.376 39.4964 7.68 39.4964 6.512C39.4964 5.376 39.1604 1.36 37.4324 1.36ZM37.3844 12H33.6244C33.8964 11.232 34.1044 9.168 34.1044 8.32V4.48C34.1044 3.632 33.8964 1.568 33.6244 0.799999H37.4004C41.0164 0.815999 42.8884 2.944 42.8884 6.512C42.8884 9.936 40.7604 11.984 37.3844 12Z" fill="#494949"/>
    <path d="M45.5903 12.16C43.9903 12.16 41.1263 11.456 41.1263 9.408C41.1263 8.368 41.9423 7.68 42.9503 7.68C43.8623 7.68 44.7423 8.272 44.7423 9.248C44.7423 10.368 43.7822 10.176 43.7822 10.8C43.7822 11.376 44.6143 11.6 45.0623 11.6C45.9423 11.6 46.6143 11.024 46.6143 10.128C46.6143 8 41.7343 6.912 41.7343 3.648C41.7343 1.424 44.0863 0.639999 45.9423 0.639999C47.4783 0.639999 49.6863 1.2 49.6863 3.12C49.6863 4.16 48.9183 4.864 47.8783 4.864C46.9663 4.864 46.1023 4.272 46.1023 3.296C46.1023 2.176 47.0463 2.368 47.0463 1.792C47.0463 1.376 46.5343 1.184 46.1823 1.184C45.4303 1.184 45.0463 1.792 45.0463 2.48C45.0463 5.648 49.9902 5.728 49.9902 8.96C49.9902 11.344 47.6063 12.16 45.5903 12.16Z" fill="#494949"/>
    <path d="M53.926 0.639999C55.782 0.639999 57.974 1.536 57.974 3.696C57.974 4.976 57.142 5.904 55.846 5.904C54.742 5.904 53.814 5.104 53.814 3.968C53.814 2.528 54.918 2.56 54.918 1.888C54.918 1.504 54.63 1.2 54.23 1.2H54.134C52.486 1.456 51.99 4.688 51.99 5.984C51.99 6.672 52.086 7.376 52.23 8.064C52.406 8.864 53.206 11.6 54.294 11.6C54.726 11.6 54.934 11.072 54.934 10.704C54.934 9.952 53.99 9.856 53.99 8.56C53.99 7.376 54.822 6.496 56.022 6.496C57.318 6.496 58.31 7.456 58.31 8.752C58.31 11.12 55.894 12.16 53.862 12.16C50.63 12.16 48.55 9.504 48.55 6.4C48.55 3.216 50.63 0.639999 53.926 0.639999Z" fill="#494949"/>
    <path d="M59.6276 7.904H61.8036C61.3076 6.272 60.8116 4.624 60.1076 3.056C59.7076 4.112 59.3716 5.264 59.3716 6.4C59.3716 6.992 59.4676 7.472 59.6276 7.904ZM61.6916 12H56.2356C57.5476 9.968 59.7076 3.488 59.7076 1.072C59.7076 0.976 59.7076 0.879999 59.6756 0.799999H61.9636C62.7476 0.799999 63.1956 1.168 63.4676 1.888C63.7236 2.576 63.9156 3.312 64.1396 4.032C64.6996 5.856 65.2436 7.696 65.9796 9.456C66.3476 10.336 66.7316 11.184 67.2276 12H62.4916C62.5076 11.648 62.5236 11.296 62.5236 10.944C62.5236 10.384 62.4276 9.984 62.2676 9.456C62.1716 9.12 62.0596 8.8 61.9636 8.464H59.8676C60.5236 9.696 61.5956 10.448 61.6916 12Z" fill="#494949"/>
    <path d="M69.2981 1.36V7.088C70.6261 6.416 71.4101 5.328 71.4101 3.808C71.4101 2.096 71.0741 1.344 69.2981 1.36ZM69.2981 7.904V12H65.5381C65.8101 11.232 66.0181 9.168 66.0181 8.32V4.48C66.0181 3.632 65.8101 1.568 65.5381 0.799999H70.7221C73.2341 0.799999 74.7861 1.696 74.7861 4.384C74.7861 7.856 71.4261 6.72 69.2981 7.904Z" fill="#494949"/>
    <path d="M77.8244 12.16C75.7604 12.16 73.0244 11.632 73.0244 9.056C73.0244 6.4 76.5284 6.736 78.2564 5.952C77.7764 6.064 77.2804 6.128 76.7844 6.128C75.2644 6.128 73.5364 5.424 73.5364 3.664C73.5364 1.424 76.1124 0.639999 77.9364 0.639999C79.6644 0.639999 82.0804 1.36 82.0804 3.472C82.0804 4.688 81.2484 5.424 80.0644 5.424C79.1364 5.424 78.3044 4.944 78.3044 3.92C78.3044 2.8 79.2004 2.912 79.2004 2.08C79.2004 1.504 78.8644 1.2 78.3044 1.2C77.1044 1.2 76.5604 2.4 76.5604 3.44C76.5604 4.896 77.5204 5.712 78.9444 5.712L78.9764 6.128C77.5044 6.656 76.4004 7.696 76.4004 9.344C76.4004 10.384 76.8644 11.6 78.0804 11.6C78.6724 11.6 79.5844 11.184 79.5844 10.48C79.5844 9.84 78.6404 9.68 78.6404 8.432C78.6404 7.2 79.4884 6.448 80.7044 6.448C82.0164 6.448 82.9444 7.36 82.9444 8.672C82.9444 11.424 80.0484 12.16 77.8244 12.16Z" fill="#494949"/>
</svg>
