<svg width="251" height="251" viewBox="0 0 251 251" fill="none" xmlns="http://www.w3.org/2000/svg">
    <path d="M244.406 125.5C244.406 59.8299 191.17 6.5937 125.5 6.5937C59.8299 6.5937 6.5937 59.8299 6.5937 125.5C6.5937 191.17 59.8299 244.406 125.5 244.406V251C56.1883 251 0 194.812 0 125.5C0 56.1883 56.1883 0 125.5 0C194.812 0 251 56.1883 251 125.5C251 194.812 194.812 251 125.5 251V244.406C191.17 244.406 244.406 191.17 244.406 125.5Z" fill="#494949"/>
    <path d="M233.856 125.72C233.856 65.7548 185.245 17.1436 125.28 17.1436C65.3153 17.1436 16.704 65.7548 16.704 125.72C16.704 185.685 65.3153 234.296 125.28 234.296V240.011C62.1592 240.011 10.9895 188.841 10.9895 125.72C10.9895 62.5988 62.1592 11.4291 125.28 11.4291C188.401 11.4291 239.571 62.5988 239.571 125.72C239.571 188.841 188.401 240.011 125.28 240.011V234.296C185.245 234.296 233.856 185.685 233.856 125.72Z" fill="#494949"/>
    <path d="M200.009 125.72C200.009 95.1947 191.291 67.8029 177.489 48.1932C163.676 28.5676 145.132 17.1436 125.28 17.1436C105.429 17.1436 86.8851 28.5676 73.0716 48.1932C59.2694 67.8029 50.5518 95.1947 50.5518 125.72C50.5518 156.245 59.2694 183.637 73.0716 203.246C86.8851 222.872 105.429 234.296 125.28 234.296V240.011C80.8528 240.011 44.8372 188.841 44.8372 125.72C44.8372 62.5988 80.8528 11.4291 125.28 11.4291C169.708 11.4291 205.723 62.5988 205.723 125.72C205.723 188.841 169.708 240.011 125.28 240.011V234.296C145.132 234.296 163.676 222.872 177.489 203.246C191.291 183.637 200.009 156.245 200.009 125.72Z" fill="#494949"/>
    <path d="M156.93 125.72C156.93 94.5934 152.797 66.6477 146.269 46.6796C142.995 36.6644 139.22 28.9731 135.303 23.9052C131.326 18.7599 127.889 17.1436 125.28 17.1436C122.671 17.1436 119.235 18.7599 115.258 23.9052C111.341 28.9731 107.565 36.6644 104.291 46.6796C97.7631 66.6477 93.6304 94.5934 93.6304 125.72C93.6304 156.846 97.7631 184.792 104.291 204.76C107.565 214.775 111.341 222.467 115.258 227.534C119.235 232.68 122.671 234.296 125.28 234.296V240.011C104.644 240.011 87.9159 188.841 87.9159 125.72C87.9159 62.5988 104.644 11.4291 125.28 11.4291C145.916 11.4291 162.644 62.5988 162.644 125.72C162.644 188.841 145.916 240.011 125.28 240.011V234.296C127.889 234.296 131.326 232.68 135.303 227.534C139.22 222.467 142.995 214.775 146.269 204.76C152.797 184.792 156.93 156.846 156.93 125.72Z" fill="#494949"/>
    <path d="M125.28 200.448C155.805 200.448 183.197 191.731 202.807 177.928C222.432 164.115 233.856 145.571 233.856 125.72C233.856 105.868 222.432 87.3245 202.807 73.511C183.197 59.7089 155.805 50.9912 125.28 50.9912C94.7551 50.9912 67.3633 59.7089 47.7536 73.5111C28.1279 87.3245 16.704 105.868 16.704 125.72L10.9895 125.72C10.9895 81.2922 62.1592 45.2766 125.28 45.2766C188.401 45.2766 239.571 81.2922 239.571 125.72C239.571 170.147 188.401 206.163 125.28 206.163C62.1592 206.163 10.9895 170.147 10.9895 125.72L16.704 125.72C16.704 145.571 28.1279 164.115 47.7536 177.928C67.3633 191.731 94.7551 200.448 125.28 200.448Z" fill="#494949"/>
    <path d="M125.28 157.37C156.407 157.37 184.352 153.237 204.32 146.709C214.336 143.435 222.027 139.659 227.095 135.742C232.24 131.765 233.856 128.329 233.856 125.72C233.856 123.111 232.24 119.674 227.095 115.698C222.027 111.78 214.336 108.005 204.32 104.731C184.352 98.2027 156.407 94.0701 125.28 94.0701C94.1538 94.0701 66.2081 98.2027 46.24 104.731C36.2248 108.005 28.5335 111.78 23.4655 115.698C18.3203 119.674 16.704 123.111 16.704 125.72L10.9895 125.72C10.9895 105.084 62.1592 88.3556 125.28 88.3556C188.401 88.3556 239.571 105.084 239.571 125.72C239.571 146.356 188.401 163.084 125.28 163.084C62.1592 163.084 10.9895 146.356 10.9895 125.72L16.704 125.72C16.704 128.329 18.3203 131.765 23.4655 135.742C28.5335 139.659 36.2248 143.435 46.24 146.709C66.2081 153.237 94.1538 157.37 125.28 157.37Z" fill="#494949"/>
</svg>
